<svg width="120" height="120" viewBox="0 0 120 120" fill="none" xmlns="http://www.w3.org/2000/svg">
<g style="mix-blend-mode:luminosity" opacity="0.6">
<path d="M16.6136 64.1025C23.6815 70.958 30.0273 72.9299 35.8686 71.0891C35.8686 71.0891 38.0364 70.7057 38.3684 73.1009C38.6605 75.1974 36.3765 75.7036 36.3765 75.7036C36.3765 75.7036 23.9537 79.0235 14.1254 68.0266C14.1254 68.0266 15.4135 66.0496 16.6136 64.1025Z" fill="#222222"/>
<path d="M13.7619 68.4815C12.1917 68.621 11.8514 66.8548 11.8514 66.8548C11.121 67.0208 10.0371 67.2864 8.85357 66.3718C7.67005 65.4572 7.19366 63.2893 7.19366 63.2893C5.88897 63.0005 5.09223 60.6733 5.09223 60.6733C5.09223 60.6733 4.34026 59.1412 5.60013 58.2615C6.37863 57.7187 6.76207 58.1254 6.76207 58.1254C6.76207 58.1254 6.79694 57.5676 7.69163 56.6414C7.93997 56.3789 8.2634 56.1996 8.61759 56.128C8.97178 56.0564 9.33941 56.096 9.67023 56.2414C10.9235 54.6528 12.1601 54.5383 13.1843 55.0645C14.2084 55.5907 14.9023 57.3801 14.9023 57.3801C14.9023 57.3801 16.524 57.3801 17.666 59.1545C18.808 60.9289 16.9689 63.208 16.9689 63.208C16.9689 63.208 17.754 63.1383 17.8851 64.204C17.9664 64.8795 17.7192 65.7792 16.3049 67.0822C14.8226 68.4483 13.7619 68.4815 13.7619 68.4815Z" fill="white" stroke="#222222" stroke-width="0.663963" stroke-linejoin="round"/>
<path d="M12.4638 64.3982C12.4638 64.3982 11.7634 62.6952 12.8108 61.1133L12.4638 64.3982Z" fill="white"/>
<path d="M12.4638 64.3982C12.4638 64.3982 11.7634 62.6952 12.8108 61.1133" stroke="#222222" stroke-width="0.663963" stroke-miterlimit="10" stroke-linecap="round"/>
<path d="M15.5562 60.3611C15.5562 60.3611 12.8837 61.9679 12.0405 60.6715C10.7823 58.736 14.9005 57.3799 14.9005 57.3799" fill="white"/>
<path d="M15.5562 60.3611C15.5562 60.3611 12.8837 61.9679 12.0405 60.6715C10.7823 58.736 14.9005 57.3799 14.9005 57.3799" stroke="#222222" stroke-width="0.663963" stroke-miterlimit="10" stroke-linecap="round"/>
<path d="M9.66852 56.2412C9.66852 56.2412 9.11246 57.3301 9.18052 58.3758C9.29339 60.0856 10.037 61.1313 10.8886 60.7661C11.7401 60.4009 11.8364 59.2207 12.2862 58.004" fill="white"/>
<path d="M9.66852 56.2412C9.66852 56.2412 9.11246 57.3301 9.18052 58.3758C9.29339 60.0856 10.037 61.1313 10.8886 60.7661C11.7401 60.4009 11.8364 59.2207 12.2862 58.004" stroke="#222222" stroke-width="0.663963" stroke-miterlimit="10"/>
<path d="M6.76036 58.1255C6.71815 58.8021 6.8159 59.4802 7.04752 60.1174C7.61521 61.7358 8.52647 62.4578 9.26181 61.8935C9.99715 61.3291 9.74155 60.3049 9.74155 60.3049" stroke="#222222" stroke-width="0.663963" stroke-miterlimit="10"/>
<path d="M7.19025 63.2893C8.66922 62.6253 7.92391 61.6294 7.92391 61.6294L7.19025 63.2893Z" fill="white"/>
<path d="M7.19025 63.2893C8.66922 62.6253 7.92391 61.6294 7.92391 61.6294" stroke="#222222" stroke-width="0.663963" stroke-miterlimit="10"/>
<path d="M10.0835 63.2049C10.0835 63.2049 11.3251 62.682 12.1567 63.1567L10.0835 63.2049Z" fill="white"/>
<path d="M10.0835 63.2049C10.0835 63.2049 11.3251 62.682 12.1567 63.1567" stroke="#222222" stroke-width="0.663963" stroke-miterlimit="10" stroke-linecap="round"/>
<path d="M11.4944 66.9343C11.4944 66.9343 13.4597 66.5426 14.8142 65.4238" stroke="#222222" stroke-width="0.663963" stroke-miterlimit="10" stroke-linecap="round"/>
<path d="M49.4386 109.304C49.1986 107.463 48.6428 103.38 57.0963 96.5198L50.3611 96C44.5276 100.017 43.1118 108.113 43.4993 109.762L43.1212 109.986C43.1212 109.986 40.5201 104.374 36.1932 104.374C30.7113 104.374 30.4674 110.423 30.4674 110.423C30.4674 110.423 30.1933 114.096 31.2349 117.826L53.7297 118.043C53.7297 118.043 57.3988 109.332 49.4386 109.304Z" fill="#222222"/>
<path d="M31.9041 117.045C31.9041 117.045 29.9986 108.777 32.6602 107.231C32.6602 107.231 36.5373 106.034 35.7963 117.045H31.9041Z" fill="white"/>
<path d="M43.127 111.215C42.7602 107.991 41.195 106.456 41.195 106.456" stroke="white" stroke-width="0.756127" stroke-miterlimit="10" stroke-linecap="round"/>
<path d="M43.1269 109.987C43.1269 109.987 44.573 109.07 46.0739 110.52" stroke="white" stroke-width="0.756127" stroke-miterlimit="10" stroke-linecap="round"/>
<path d="M68.0001 95.633C68.0001 95.633 67.9093 101.533 75.1171 102.482C82.3249 103.431 82.3759 100.053 82.3759 100.053C82.3759 100.053 79.0716 101.283 79.0716 107.544C79.0716 108.57 79.4346 113.618 83.8655 114.192C90.6518 115.073 92.9881 110.601 92.9881 106.41V93.8316C92.9881 93.8316 92.9163 90.2607 88.0204 90.2607C83.4024 90.2607 82.8693 95.6103 82.8693 95.6103C82.8693 95.6103 80.495 98.4458 76.9923 98.0243C74.9129 97.771 73.0623 96.7672 72.9961 94.962L68.0001 95.633Z" fill="#222222"/>
<path d="M85.3607 92.8408C85.3607 92.8408 83.7597 95.1773 79.6709 97.1167" stroke="white" stroke-width="0.756127" stroke-miterlimit="10" stroke-linecap="round"/>
<path d="M83.1453 100.472C83.1453 100.472 81.7956 102.013 78.6917 103.056" stroke="white" stroke-width="0.756127" stroke-miterlimit="10" stroke-linecap="round"/>
<path d="M81.9336 104.599C81.9336 104.599 83.6915 106.612 86.8729 105.187" stroke="white" stroke-width="0.756127" stroke-linecap="round" stroke-linejoin="round"/>
<path d="M81.5026 108.223C81.5026 108.223 83.2606 110.238 86.442 108.812" stroke="white" stroke-width="0.756127" stroke-linecap="round" stroke-linejoin="round"/>
<path d="M25.8588 35.6021C25.8588 35.6021 37.9595 38.9617 49.7499 40.2498C61.5402 41.5379 74.363 40.6532 74.363 40.6532V95.3587C74.363 95.3587 59.0487 98.3051 47.0027 97.4934C35.2788 96.7049 25.8588 92.0356 25.8588 92.0356V35.6021Z" fill="white"/>
<path d="M25.8588 35.6021C25.8588 35.6021 37.9595 38.9617 49.7499 40.2498C61.5402 41.5379 74.363 40.6532 74.363 40.6532V95.3587C74.363 95.3587 59.0487 98.3051 47.0027 97.4934C35.2788 96.7049 25.8588 92.0356 25.8588 92.0356V35.6021Z" fill="#FF5CBE" fill-opacity="0.55"/>
<path d="M25.8588 35.6021C25.8588 35.6021 37.9595 38.9617 49.7499 40.2498C61.5402 41.5379 74.363 40.6532 74.363 40.6532V95.3587C74.363 95.3587 59.0487 98.3051 47.0027 97.4934C35.2788 96.7049 25.8588 92.0356 25.8588 92.0356V35.6021Z" stroke="#222222" stroke-width="0.829954" stroke-linejoin="round"/>
<path d="M74.363 40.6532L96.8813 23.9678L25.8588 35.6021C25.8588 35.6021 42.3799 42.25 74.363 40.6532Z" fill="white"/>
<path d="M74.363 40.6532L96.8813 23.9678L25.8588 35.6021C25.8588 35.6021 42.3799 42.25 74.363 40.6532Z" fill="#FF5CBE" fill-opacity="0.55"/>
<path d="M74.363 40.6532L96.8813 23.9678L25.8588 35.6021C25.8588 35.6021 42.3799 42.25 74.363 40.6532Z" stroke="#222222" stroke-width="0.829954" stroke-linejoin="round"/>
<path d="M97.0555 23.9678L74.5372 40.6532V95.3571L97.0555 73.8745V23.9678Z" fill="white" stroke="#222222" stroke-width="0.829954" stroke-linejoin="round"/>
<path d="M96.3766 25.3403L75.1149 40.9003L75.2493 93.8779L96.3766 73.5806V25.3403Z" fill="#F2F2F2"/>
<path d="M96.8813 41.9609L74.3646 61.4068V76.5318L96.8813 55.0477V41.9609Z" fill="#FF251D" stroke="#222222" stroke-width="0.829954" stroke-linejoin="round"/>
<path d="M63.6474 74.9384C63.3952 74.6863 62.9864 74.6863 62.7342 74.9385C62.4821 75.1906 62.4821 75.5994 62.7342 75.8516L64.6369 77.7542C64.889 78.0064 65.2978 78.0064 65.55 77.7542C65.8022 77.5021 65.8022 77.0932 65.55 76.8411L63.6474 74.9384Z" fill="#FBFF6C"/>
<path d="M58.9121 78.63C59.1643 78.3778 59.1643 77.969 58.9121 77.7168C58.66 77.4647 58.2511 77.4647 57.999 77.7168L56.0964 79.6195C55.8442 79.8716 55.8442 80.2804 56.0963 80.5326C56.3485 80.7848 56.7574 80.7848 57.0095 80.5326L58.9121 78.63Z" fill="#FF251D"/>
<path d="M59.7057 46.6085C59.9579 46.3563 59.9579 45.9475 59.7057 45.6953C59.4536 45.4432 59.0447 45.4432 58.7926 45.6954L56.8899 47.598C56.6378 47.8501 56.6378 48.259 56.8899 48.5111C57.1421 48.7633 57.5509 48.7633 57.8031 48.5111L59.7057 46.6085Z" fill="#FF251D"/>
<path d="M29.3216 74.0986C29.0694 73.8464 28.6606 73.8464 28.4084 74.0986C28.1562 74.3508 28.1563 74.7596 28.4084 75.0118L30.311 76.9144C30.5632 77.1665 30.972 77.1666 31.2242 76.9144C31.4764 76.6622 31.4764 76.2534 31.2242 76.0012L29.3216 74.0986Z" fill="#FBFF6C"/>
<path d="M33.9828 42.7445C33.7306 42.9967 33.7306 43.4055 33.9828 43.6577C34.235 43.9098 34.6438 43.9098 34.896 43.6577L36.7986 41.7551C37.0508 41.5029 37.0507 41.094 36.7986 40.8419C36.5464 40.5897 36.1376 40.5897 35.8854 40.8419L33.9828 42.7445Z" fill="#FF251D"/>
<path d="M30.7007 48.3553C31.1903 48.3553 31.5871 47.9584 31.5871 47.4689C31.5871 46.9794 31.1903 46.5825 30.7007 46.5825C30.2112 46.5825 29.8143 46.9794 29.8143 47.4689C29.8143 47.9584 30.2112 48.3553 30.7007 48.3553Z" fill="#FBFF6C"/>
<path d="M46.8068 51.7913C47.2963 51.7913 47.6932 51.3945 47.6932 50.9049C47.6932 50.4154 47.2963 50.0186 46.8068 50.0186C46.3173 50.0186 45.9204 50.4154 45.9204 50.9049C45.9204 51.3945 46.3173 51.7913 46.8068 51.7913Z" fill="#FBFF6C"/>
<path d="M29.816 69.8026C30.3056 69.8026 30.7024 69.4057 30.7024 68.9162C30.7024 68.4266 30.3056 68.0298 29.816 68.0298C29.3265 68.0298 28.9296 68.4266 28.9296 68.9162C28.9296 69.4057 29.3265 69.8026 29.816 69.8026Z" fill="#FF251D"/>
<path d="M44.0807 43.8857C43.8286 43.6335 43.4198 43.6335 43.1676 43.8857C42.9154 44.1379 42.9154 44.5467 43.1676 44.7989L45.0702 46.7015C45.3224 46.9537 45.7312 46.9536 45.9834 46.7015C46.2355 46.4493 46.2355 46.0405 45.9834 45.7883L44.0807 43.8857Z" fill="#FBFF6C"/>
<path d="M50.4437 48.4881C50.9332 48.4881 51.3301 48.0913 51.3301 47.6017C51.3301 47.1122 50.9332 46.7153 50.4437 46.7153C49.9542 46.7153 49.5573 47.1122 49.5573 47.6017C49.5573 48.0913 49.9542 48.4881 50.4437 48.4881Z" fill="white"/>
<path d="M29.2284 42.4241C29.7179 42.4241 30.1148 42.0273 30.1148 41.5378C30.1148 41.0482 29.7179 40.6514 29.2284 40.6514C28.7388 40.6514 28.342 41.0482 28.342 41.5378C28.342 42.0273 28.7388 42.4241 29.2284 42.4241Z" fill="white"/>
<path d="M39.985 80.8355C40.2371 81.0877 40.646 81.0876 40.8982 80.8355C41.1503 80.5833 41.1503 80.1745 40.8982 79.9223L38.9955 78.0197C38.7434 77.7675 38.3345 77.7675 38.0824 78.0197C37.8302 78.2719 37.8302 78.6807 38.0824 78.9329L39.985 80.8355Z" fill="#FF251D"/>
<path d="M68.872 78.305C69.3615 78.305 69.7584 77.9082 69.7584 77.4186C69.7584 76.9291 69.3615 76.5322 68.872 76.5322C68.3824 76.5322 67.9856 76.9291 67.9856 77.4186C67.9856 77.9082 68.3824 78.305 68.872 78.305Z" fill="white"/>
<path d="M62.2344 50.4209C61.9822 50.1687 61.5734 50.1687 61.3212 50.4209C61.069 50.673 61.069 51.0819 61.3212 51.334L63.2238 53.2366C63.476 53.4888 63.8848 53.4888 64.137 53.2367C64.3891 52.9845 64.3892 52.5756 64.137 52.3235L62.2344 50.4209Z" fill="#FBFF6C"/>
<path d="M69.4646 47.9901C69.9541 47.9901 70.351 47.5932 70.351 47.1037C70.351 46.6141 69.9541 46.2173 69.4646 46.2173C68.975 46.2173 68.5782 46.6141 68.5782 47.1037C68.5782 47.5932 68.975 47.9901 69.4646 47.9901Z" fill="white"/>
<path d="M71.4037 53.173C71.6559 52.9208 71.6559 52.512 71.4037 52.2598C71.1515 52.0076 70.7427 52.0076 70.4906 52.2598L68.5879 54.1624C68.3358 54.4146 68.3358 54.8234 68.5879 55.0756C68.8401 55.3277 69.2489 55.3278 69.5011 55.0756L71.4037 53.173Z" fill="#FF251D"/>
<path d="M64.3052 84.891C64.053 85.1432 64.053 85.552 64.3052 85.8042C64.5574 86.0563 64.9662 86.0563 65.2184 85.8042L67.121 83.9015C67.3731 83.6494 67.3732 83.2406 67.121 82.9884C66.8688 82.7362 66.46 82.7362 66.2078 82.9884L64.3052 84.891Z" fill="#FF251D"/>
<path d="M34.888 89.7709C34.6359 90.023 34.6359 90.4319 34.888 90.6841C35.1402 90.9362 35.549 90.9362 35.8012 90.684L37.7038 88.7814C37.956 88.5293 37.956 88.1204 37.7038 87.8683C37.4517 87.6161 37.0428 87.6161 36.7906 87.8683L34.888 89.7709Z" fill="#FBFF6C"/>
<path d="M31.3365 84.3968C31.826 84.3968 32.2229 84 32.2229 83.5104C32.2229 83.0209 31.826 82.624 31.3365 82.624C30.8469 82.624 30.4501 83.0209 30.4501 83.5104C30.4501 84 30.8469 84.3968 31.3365 84.3968Z" fill="white"/>
<path d="M59.601 85.3393L59.1244 85.8159C59.0039 85.9365 59.0039 86.1319 59.1244 86.2525L61.5036 88.6316C61.6242 88.7522 61.8196 88.7522 61.9402 88.6317L62.4167 88.1551C62.5373 88.0345 62.5373 87.8391 62.4168 87.7185L60.0376 85.3393C59.917 85.2188 59.7215 85.2188 59.601 85.3393Z" fill="white"/>
<path d="M68.872 90.5135C69.3615 90.5135 69.7584 90.1167 69.7584 89.6271C69.7584 89.1376 69.3615 88.7407 68.872 88.7407C68.3824 88.7407 67.9856 89.1376 67.9856 89.6271C67.9856 90.1167 68.3824 90.5135 68.872 90.5135Z" fill="#FBFF6C"/>
<path d="M56.3818 91.8492L55.9052 91.3726C55.7846 91.2521 55.5891 91.252 55.4686 91.3726L53.0894 93.7518C52.9688 93.8723 52.9689 94.0678 53.0894 94.1884L53.566 94.6649C53.6865 94.7855 53.882 94.7855 54.0026 94.6649L56.3817 92.2858C56.5023 92.1652 56.5023 91.9697 56.3818 91.8492Z" fill="#FBFF6C"/>
<path d="M49.5042 90.2943C49.9937 90.2943 50.3906 89.8974 50.3906 89.4079C50.3906 88.9183 49.9937 88.5215 49.5042 88.5215C49.0146 88.5215 48.6178 88.9183 48.6178 89.4079C48.6178 89.8974 49.0146 90.2943 49.5042 90.2943Z" fill="#FF251D"/>
<path d="M47.5472 83.2163C48.9681 83.2163 50.12 81.0612 50.12 78.4026C50.12 75.744 48.9681 73.5889 47.5472 73.5889C46.1262 73.5889 44.9743 75.744 44.9743 78.4026C44.9743 81.0612 46.1262 83.2163 47.5472 83.2163Z" fill="white" stroke="#222222" stroke-width="0.829954" stroke-miterlimit="10" stroke-linecap="round"/>
<path d="M57.6128 72.3308C62.4679 72.3308 66.4037 68.395 66.4037 63.5399C66.4037 58.6848 62.4679 54.749 57.6128 54.749C52.7578 54.749 48.822 58.6848 48.822 63.5399C48.822 68.395 52.7578 72.3308 57.6128 72.3308Z" fill="white" stroke="#222222" stroke-width="0.829954" stroke-linejoin="round"/>
<path d="M48.822 63.54L66.0551 64.2936" stroke="#222222" stroke-width="0.829954" stroke-miterlimit="10" stroke-linecap="round"/>
<path d="M49.5972 63.1928L63.3993 56.9897" stroke="#222222" stroke-width="0.829954" stroke-miterlimit="10" stroke-linecap="round"/>
<path d="M49.3979 63.7026L63.2665 69.758" stroke="#222222" stroke-width="0.829954" stroke-miterlimit="10" stroke-linecap="round"/>
<path d="M40.1855 70.8088C45.0405 70.8088 48.9763 66.873 48.9763 62.0179C48.9763 57.1629 45.0405 53.2271 40.1855 53.2271C35.3304 53.2271 31.3946 57.1629 31.3946 62.0179C31.3946 66.873 35.3304 70.8088 40.1855 70.8088Z" fill="white" stroke="#222222" stroke-width="0.829954" stroke-linejoin="round"/>
<path d="M48.6112 63.4636L31.5324 61.0435" stroke="#222222" stroke-width="0.829954" stroke-miterlimit="10" stroke-linecap="round"/>
<path d="M48.2693 63.1252L35.4647 55.063" stroke="#222222" stroke-width="0.829954" stroke-miterlimit="10" stroke-linecap="round"/>
<path d="M48.0634 63.6577L33.4877 67.7245" stroke="#222222" stroke-width="0.829954" stroke-miterlimit="10" stroke-linecap="round"/>
<path d="M33.4379 70.352C35.1797 70.352 36.5917 69.5345 36.5917 68.5261C36.5917 67.5177 35.1797 66.7002 33.4379 66.7002C31.6961 66.7002 30.2841 67.5177 30.2841 68.5261C30.2841 69.5345 31.6961 70.352 33.4379 70.352Z" fill="#8392E2" stroke="#222222" stroke-width="0.663963" stroke-miterlimit="10"/>
<path d="M60.6604 73.5063C62.4022 73.5063 63.8142 72.6888 63.8142 71.6804C63.8142 70.672 62.4022 69.8545 60.6604 69.8545C58.9186 69.8545 57.5066 70.672 57.5066 71.6804C57.5066 72.6888 58.9186 73.5063 60.6604 73.5063Z" fill="#8392E2" stroke="#222222" stroke-width="0.663963" stroke-miterlimit="10"/>
<path d="M68.4388 70.4519C69.1722 70.4519 69.7667 69.8291 69.7667 69.0609C69.7667 68.2927 69.1722 67.6699 68.4388 67.6699C67.7054 67.6699 67.1108 68.2927 67.1108 69.0609C67.1108 69.8291 67.7054 70.4519 68.4388 70.4519Z" fill="#8392E2" stroke="#222222" stroke-width="0.663963" stroke-miterlimit="10"/>
<path d="M70.8323 74.3327C71.4007 74.3327 71.8615 73.8496 71.8615 73.2537C71.8615 72.6579 71.4007 72.1748 70.8323 72.1748C70.264 72.1748 69.8032 72.6579 69.8032 73.2537C69.8032 73.8496 70.264 74.3327 70.8323 74.3327Z" fill="#8392E2" stroke="#222222" stroke-width="0.663963" stroke-miterlimit="10"/>
<path d="M61.6713 2.26777C59.5837 2.12067 57.4978 2.57577 55.6612 3.57902C53.8246 4.58228 52.3144 6.09155 51.3102 7.9276C50.3059 9.76366 49.8496 11.8494 49.9956 13.937C50.1415 16.0247 50.8835 18.0266 52.1335 19.7051C57.9116 27.2892 58.7051 29.6015 59.7923 32.8068C60.0795 33.65 61.6182 33.8027 61.98 32.7819C61.98 32.7819 64.3969 26.026 69.5675 19.8346C71.3834 17.6618 71.9594 15.3296 71.8216 12.6007C71.6725 9.93966 70.5603 7.42378 68.6926 5.52246C66.8249 3.62115 64.3293 2.46431 61.6713 2.26777ZM60.9028 18.6129C59.8548 18.6129 58.8305 18.3021 57.9591 17.7199C57.0878 17.1377 56.4087 16.3102 56.0077 15.3421C55.6066 14.3739 55.5017 13.3086 55.7062 12.2808C55.9106 11.253 56.4152 10.3089 57.1562 9.56791C57.8972 8.82691 58.8413 8.32228 59.8691 8.11784C60.8969 7.9134 61.9622 8.01833 62.9304 8.41935C63.8986 8.82038 64.726 9.49949 65.3082 10.3708C65.8904 11.2421 66.2012 12.2665 66.2012 13.3145C66.2012 14.0103 66.0641 14.6992 65.7979 15.3421C65.5316 15.9849 65.1413 16.569 64.6493 17.061C64.1573 17.553 63.5732 17.9433 62.9304 18.2096C62.2876 18.4758 61.5986 18.6129 60.9028 18.6129Z" fill="#FF251D" stroke="#222222" stroke-width="0.829954" stroke-miterlimit="10"/>
<path d="M101.452 66.2685C95.0363 60.4389 87.8988 63.5662 82.9938 65.4668C82.9938 65.4668 81.2292 66.1589 80.5952 64.2567C80.0972 62.7628 82.2949 61.5378 82.2949 61.5378C82.2949 61.5378 93.3764 53.7993 103.367 62.7628C103.367 62.7628 102.38 64.5322 101.452 66.2685Z" fill="#222222"/>
<path d="M98.3561 64.6881C98.2466 66.0376 99.767 66.3181 99.767 66.3181C99.6243 66.9472 99.4085 67.8817 100.202 68.891C100.995 69.9002 105.127 72.0879 105.127 72.0879C105.127 72.0879 106.455 72.7237 107.195 71.6348C107.658 70.9609 107.305 70.6388 107.305 70.6388C107.305 70.6388 107.784 70.6056 108.575 69.8305C108.799 69.6155 108.951 69.3365 109.01 69.0316C109.07 68.7267 109.034 68.4108 108.906 68.1274C110.263 67.0385 110.352 65.9795 109.892 65.0981C109.433 64.2167 107.884 62.243 106.345 61.2803C104.806 60.3175 102.859 61.9077 102.859 61.9077C102.859 61.9077 102.914 61.2321 101.991 61.1276C101.41 61.0612 100.64 61.277 99.5296 62.5053C98.3793 63.7751 98.3561 64.6881 98.3561 64.6881Z" fill="white" stroke="#222222" stroke-width="0.663963" stroke-linejoin="round"/>
<path d="M99.704 66.6271C99.704 66.6271 100.026 64.934 100.979 63.7588" stroke="#222222" stroke-width="0.663963" stroke-miterlimit="10" stroke-linecap="round"/>
<path d="M108.908 68.1211C108.908 68.1211 107.188 67.6513 106.461 66.0811L108.908 68.1211Z" fill="white"/>
<path d="M108.908 68.1211C108.908 68.1211 107.188 67.6513 106.461 66.0811" stroke="#222222" stroke-width="0.663963" stroke-linejoin="round"/>
<path d="M107.308 70.6326C107.308 70.6326 105.686 70.1047 104.959 68.5361L107.308 70.6326Z" fill="white"/>
<path d="M107.308 70.6326C107.308 70.6326 105.686 70.1047 104.959 68.5361" stroke="#222222" stroke-width="0.663963" stroke-linejoin="round"/>
</g>
</svg>
