<svg id="Layer_1" height="512" viewBox="0 0 24 24" width="512" xmlns="http://www.w3.org/2000/svg" data-name="Layer 1"><path d="m21 13a1 1 0 0 0 -1 1v3a3 3 0 0 1 -3 3h-10a3 3 0 0 1 -3-3v-10a3 3 0 0 1 3-3h5a1 1 0 0 0 0-2h-5a5.006 5.006 0 0 0 -5 5v10a5.006 5.006 0 0 0 5 5h10a5.006 5.006 0 0 0 5-5v-3a1 1 0 0 0 -1-1z"/><path d="m7.01 13.142a1 1 0 0 0 .83.845.968.968 0 0 0 .16.013 1 1 0 0 0 .895-.553c1.241-2.483 4.543-2.632 6.105-2.539v2.092a1 1 0 0 0 1.707.707l5-5a1 1 0 0 0 -.082-1.488l-5-4a1 1 0 0 0 -1.625.781v1.918c-2.8-.131-4.94.535-6.341 1.979a6.725 6.725 0 0 0 -1.649 5.245z"/></svg>