<?xml version="1.0" encoding="iso-8859-1"?>
<!-- Generator: Adobe Illustrator 19.0.0, SVG Export Plug-In . SVG Version: 6.00 Build 0)  -->
<svg version="1.1" id="Capa_1" xmlns="http://www.w3.org/2000/svg" xmlns:xlink="http://www.w3.org/1999/xlink" x="0px" y="0px"
	 viewBox="0 0 512 512" style="enable-background:new 0 0 512 512;" xml:space="preserve">
<g>
	<g>
		<path d="M496.988,240.971h-34.046c-6.768-103.018-89.08-185.733-191.929-193.125V15.012C271.012,6.721,264.291,0,256,0
			c-8.291,0-15.012,6.721-15.012,15.012v32.833c-102.849,7.392-185.16,90.109-191.929,193.125H15.012
			C6.721,240.971,0,247.692,0,255.983c0,8.291,6.721,15.012,15.012,15.012h34.219c7.923,101.496,89.224,182.715,190.756,190.504
			v35.489c0,8.291,6.721,15.012,15.012,15.012c8.291,0,15.012-6.721,15.012-15.012v-35.358
			c102.462-6.87,184.784-88.472,192.758-190.633h34.219c8.291,0,15.012-6.721,15.012-15.012
			C512,247.693,505.279,240.971,496.988,240.971z M383.202,270.995h49.426c-7.831,85.594-76.718,153.797-162.617,160.541v-48.334
			c0-8.291-6.721-15.012-15.012-15.012c-8.291,0-15.012,6.721-15.012,15.012v48.156c-84.964-7.639-152.845-75.436-160.614-160.362
			h49.426c8.291,0,15.012-6.721,15.012-15.012c0-8.291-6.721-15.012-15.012-15.012H79.145
			c6.651-86.456,75.559-155.741,161.843-163.007V128.8c0,8.291,6.721,15.012,15.012,15.012c8.291,0,15.012-6.721,15.012-15.012
			V77.964c86.284,7.266,155.192,76.552,161.843,163.007h-49.653c-8.291,0-15.012,6.721-15.012,15.012
			C368.19,264.274,374.912,270.995,383.202,270.995z"/>
	</g>
</g>
<g>
	<g>
		<path d="M270.935,253.229c-0.05-0.49-0.12-0.981-0.22-1.461c-0.09-0.47-0.21-0.951-0.36-1.421c-0.14-0.47-0.31-0.931-0.49-1.381
			c-0.19-0.45-0.4-0.901-0.631-1.331c-0.23-0.43-0.48-0.861-0.751-1.261c-0.27-0.41-0.57-0.811-0.881-1.191
			s-0.641-0.751-0.991-1.091c-0.34-0.35-0.711-0.681-1.091-0.991c-0.38-0.31-0.781-0.61-1.191-0.881
			c-0.4-0.27-0.831-0.52-1.261-0.751s-0.871-0.44-1.331-0.63c-0.45-0.18-0.911-0.35-1.381-0.49c-0.46-0.14-0.941-0.27-1.421-0.36
			c-0.48-0.1-0.971-0.17-1.461-0.22c-0.981-0.1-1.972-0.1-2.952,0c-0.48,0.05-0.971,0.12-1.451,0.22
			c-0.48,0.09-0.961,0.22-1.431,0.36c-0.46,0.14-0.931,0.31-1.381,0.49c-0.45,0.19-0.901,0.4-1.331,0.63
			c-0.43,0.23-0.851,0.48-1.261,0.751s-0.811,0.57-1.181,0.881c-0.38,0.31-0.751,0.641-1.101,0.991
			c-0.35,0.34-0.681,0.711-0.991,1.091c-0.31,0.38-0.6,0.781-0.871,1.191c-0.27,0.4-0.53,0.831-0.761,1.261
			c-0.23,0.43-0.44,0.881-0.62,1.331c-0.19,0.45-0.36,0.911-0.5,1.381c-0.14,0.47-0.26,0.951-0.36,1.421
			c-0.1,0.48-0.17,0.971-0.22,1.461c-0.05,0.49-0.07,0.991-0.07,1.481c0,0.49,0.02,0.981,0.07,1.471
			c0.05,0.49,0.12,0.981,0.22,1.461c0.1,0.47,0.22,0.951,0.36,1.421c0.14,0.47,0.31,0.931,0.5,1.381
			c0.18,0.45,0.39,0.901,0.62,1.331s0.49,0.851,0.761,1.261s0.56,0.811,0.871,1.191c0.31,0.38,0.641,0.741,0.991,1.091
			c0.35,0.35,0.721,0.681,1.101,0.991c0.37,0.31,0.771,0.61,1.181,0.881c0.41,0.27,0.831,0.52,1.261,0.751
			c0.43,0.23,0.881,0.44,1.331,0.63c0.45,0.18,0.921,0.35,1.381,0.49c0.47,0.14,0.951,0.27,1.431,0.36
			c0.48,0.1,0.971,0.17,1.451,0.22c0.49,0.05,0.991,0.08,1.481,0.08c0.49,0,0.981-0.03,1.471-0.08c0.49-0.05,0.981-0.12,1.461-0.22
			c0.48-0.09,0.961-0.22,1.421-0.36c0.47-0.14,0.931-0.31,1.381-0.49c0.46-0.19,0.901-0.4,1.331-0.63
			c0.43-0.23,0.861-0.48,1.261-0.751c0.41-0.27,0.811-0.57,1.191-0.881c0.38-0.31,0.751-0.641,1.091-0.991
			c0.35-0.35,0.681-0.711,0.991-1.091c0.31-0.38,0.61-0.781,0.881-1.191c0.27-0.41,0.52-0.831,0.751-1.261
			c0.23-0.43,0.44-0.881,0.631-1.331c0.18-0.45,0.35-0.911,0.49-1.381c0.15-0.47,0.27-0.951,0.36-1.421
			c0.1-0.48,0.17-0.971,0.22-1.461c0.05-0.49,0.08-0.981,0.08-1.471C271.015,254.22,270.985,253.719,270.935,253.229z"/>
	</g>
</g>
<g>
</g>
<g>
</g>
<g>
</g>
<g>
</g>
<g>
</g>
<g>
</g>
<g>
</g>
<g>
</g>
<g>
</g>
<g>
</g>
<g>
</g>
<g>
</g>
<g>
</g>
<g>
</g>
<g>
</g>
</svg>
